<svg xmlns="http://www.w3.org/2000/svg" xmlns:xlink="http://www.w3.org/1999/xlink" xmlns:a="http://ns.adobe.com/AdobeSVGViewerExtensions/3.0/" version="1.2" baseProfile="tiny" x="0px" y="0px" viewBox="0 0 100 125" xml:space="preserve"><path d="M85,77.5V60c0-2.761-2.239-5-5-5h-3.75l-1.856-7.425C73.281,43.123,69.281,40,64.692,40H46.25L38.681,9.725  c-0.657-2.629-3.289-4.256-5.935-3.668l-12.691,2.82c-2.763,0.614-4.466,3.396-3.755,6.136L32.5,77.5H45V90H35v5h40v-5H65V77.5H85z   M64.692,45c2.299,0,4.293,1.557,4.851,3.787L71.096,55H50l-2.5-10H64.692z M38.304,70L24.209,15.636l7.786-1.73L44.144,62.5H77.5  V70H38.304z M60,90H50V77.5h10V90z"/><text x="0" y="115" fill="#000000" font-size="5px" font-weight="bold" font-family="'Helvetica Neue', Helvetica, Arial-Unicode, Arial, Sans-serif"></text><text x="0" y="120" fill="#000000" font-size="5px" font-weight="bold" font-family="'Helvetica Neue', Helvetica, Arial-Unicode, Arial, Sans-serif"></text></svg>